<svg xmlns="http://www.w3.org/2000/svg" width="97.75" height="97.75"><path d="M48.875 0C21.882 0 0 21.882 0 48.875S21.882 97.75 48.875 97.75 97.75 75.868 97.75 48.875 75.868 0 48.875 0zm18.937 60.096c-.283 4.973-1.896 9.471-4.871 13.469-1.498 2.015-3.213 3.814-5.235 5.312-2.595 1.92-5.479 3.18-8.634 3.842-2.335.491-4.694.625-7.068.508-2.561-.125-5.057-.603-7.458-1.521a21.458 21.458 0 0 1-6.92-4.276c-2.744-2.522-4.908-5.469-6.393-8.898-.918-2.122-1.498-4.334-1.789-6.629a27.302 27.302 0 0 1-.174-4.891c.304-5.676 2.271-10.696 5.962-15.032 1.663-1.954 3.547-3.658 5.727-5.022a21.904 21.904 0 0 1 7.412-2.937 26.508 26.508 0 0 1 6.695-.463c2.106.12 4.168.472 6.177 1.117.233.076.487.117.72.3-.425.91-.835 1.824-1.143 2.78a16.351 16.351 0 0 0-.637 2.968c-.188-.058-.324-.091-.453-.14a16.124 16.124 0 0 0-4.604-1.042 19.013 19.013 0 0 0-3.71.055 17.15 17.15 0 0 0-4.07.976c-2.039.771-3.849 1.916-5.468 3.368-2.099 1.882-3.779 4.074-4.929 6.658a18.825 18.825 0 0 0-1.475 5.434 21.003 21.003 0 0 0-.065 4.621 19.452 19.452 0 0 0 2.273 7.412c1.18 2.172 2.691 4.068 4.642 5.6a17.62 17.62 0 0 0 7.61 3.482c.245.047.453.021.674-.07 2.064-.856 3.886-2.08 5.489-3.633 1.744-1.688 3.128-3.646 4.282-5.772 1.296-2.394 2.257-4.922 3.021-7.528a57.227 57.227 0 0 0 1.471-6.451c.296-1.733.52-3.478.697-5.229.39-3.792.49-7.594.412-11.402-.015-.65-.055-1.402-.082-2.134-.053-.393-.072-.536-.086-.618l-.158-.291c-.536-1.388-1.049-2.786-1.608-4.164a116.175 116.175 0 0 0-7.161-14.57c-.117-.202-.237-.402-.348-.606-.021-.037.002-.096.008-.193.185.148.341.266.489.393 1.567 1.342 2.854 2.926 3.969 4.653 1.618 2.506 2.772 5.22 3.587 8.084a38.1 38.1 0 0 1 1.225 6.439c.004.027.008.157.008.229.014.077.031.203.088.618.062.112.148.301.179.378.937 2.511 1.664 5.081 2.127 7.72.408 2.321.614 4.662.563 7.021-.108 4.828-1.197 9.422-3.338 13.752-2.575 5.209-6.219 9.541-10.843 13.053-.229.173-.46.342-.689.515-.01.007-.008.03-.027.13.445-.017.857-.012 1.267-.049 4.425-.402 8.238-2.126 11.339-5.33 2.123-2.193 3.562-4.802 4.455-7.715.594-1.938.854-3.927.83-5.948-.028-2.425-.426-4.786-1.322-7.05a4.5 4.5 0 0 1-.09-.254c-.01-.033-.006-.07-.012-.128.645-.19 1.299-.36 1.937-.582a20.708 20.708 0 0 0 1.845-.742c.618-.284 1.213-.618 1.842-.942.055.111.115.217.161.332.646 1.604 1.081 3.269 1.364 4.972.332 2.005.428 4.029.313 6.061zm10.665-30.545a22 22 0 0 1-1.144 5.792c-.312.903-.757 1.744-1.237 2.565-.83 1.418-1.814 2.716-3.066 3.795-1.289 1.113-2.76 1.86-4.446 2.153-1.392.243-2.752.123-4.089-.318-1.419-.468-2.661-1.241-3.799-2.194-.301-.253-.586-.524-.889-.794.123-.207.318-.268.48-.363a61.32 61.32 0 0 0 6.408-4.256c1.688-1.286 3.295-2.664 4.709-4.252.813-.915 1.545-1.889 2.088-2.994a7.095 7.095 0 0 0 .559-1.568c.021-.097.016-.199.028-.412-3.614 6.297-8.845 10.28-15.804 11.985-.086-.115-.147-.18-.189-.256-.854-1.548-1.359-3.202-1.438-4.971-.096-2.165.545-4.102 1.869-5.818a8.818 8.818 0 0 1 2.582-2.248c1.469-.852 3.037-1.457 4.659-1.932.189-.056.382-.107.571-.154 2.202-.539 4.066-1.671 5.686-3.234a13.887 13.887 0 0 0 2.627-3.527c.104-.202.219-.399.356-.65.185.292.341.53.483.776 1.006 1.734 1.735 3.58 2.258 5.512.652 2.415.891 4.872.738 7.363z"/></svg>