<?xml version="1.0" encoding="iso-8859-1"?>
<!-- Generator: Adobe Illustrator 19.0.0, SVG Export Plug-In . SVG Version: 6.00 Build 0)  -->
<svg version="1.1" id="Capa_1" xmlns="http://www.w3.org/2000/svg" xmlns:xlink="http://www.w3.org/1999/xlink" x="0px" y="0px"
	 viewBox="0 0 464 464" style="enable-background:new 0 0 464 464;" xml:space="preserve">
<path style="fill:#F2BB80;" d="M368,368l41.728-47.944c7.253-8.16,6.517-20.655-1.644-27.908c-0.408-0.363-0.831-0.708-1.268-1.036
	c-8.333-6.251-20.087-4.959-26.864,2.952L344,336c-29.416,14.71-47.998,44.775-48,77.664V464h88l80-128V200c0-11.046-8.954-20-20-20
	s-20,8.954-20,20v104L368,368z"/>
<circle style="fill:#4398D1;" cx="232" cy="160" r="160"/>
<path style="fill:#F2BB80;" d="M96,368l-41.728-47.944c-7.253-8.16-6.517-20.655,1.644-27.908c0.408-0.363,0.831-0.708,1.268-1.036
	c8.333-6.251,20.087-4.959,26.864,2.952L120,336c29.416,14.71,47.998,44.775,48,77.664V464H80L0,336V200c0-11.046,8.954-20,20-20
	s20,8.954,20,20v104L96,368z"/>
<g>
	<path style="fill:#E8A16D;" d="M96,376c-2.316,0.006-4.519-0.999-6.032-2.752L48.24,325.304c-3.011-3.233-2.831-8.295,0.402-11.307
		c3.233-3.011,8.295-2.831,11.307,0.402c0.123,0.132,0.242,0.269,0.356,0.409l41.728,47.944c2.898,3.335,2.545,8.388-0.79,11.286
		C99.788,375.302,97.927,375.999,96,376L96,376z"/>
	<path style="fill:#E8A16D;" d="M368,376c-4.418-0.003-7.997-3.588-7.994-8.006c0.001-1.927,0.698-3.788,1.962-5.242l41.728-47.944
		c2.785-3.43,7.824-3.952,11.253-1.166s3.952,7.824,1.166,11.253c-0.114,0.14-0.233,0.277-0.356,0.409l-41.728,47.944
		C372.519,375.001,370.316,376.006,368,376L368,376z"/>
</g>
<path style="fill:#3E8CC7;" d="M346.064,47.888c-42.24,125.6-138.528,191.496-226.312,226.056
	c63.038,61.88,164.305,60.941,226.185-2.097C406.958,209.684,407.015,110.12,346.064,47.888z"/>
<g>
	<path style="fill:#88B337;" d="M168,184h64v88l-40-16v-32l-24-8V184z"/>
	<path style="fill:#88B337;" d="M304,96l-32,40l24,24v64h32l40-56h-24V96H304z"/>
	<path style="fill:#88B337;" d="M280,72l43.296-43.296C300.998,13.114,275.073,3.507,248,0.8V48L280,72z"/>
	<path style="fill:#88B337;" d="M128,152l40,32v-48h56V96l-32-32v24h-32V17.256C121.457,36.692,92.38,70.849,79.344,112H128V152z"/>
</g>
<g>
</g>
<g>
</g>
<g>
</g>
<g>
</g>
<g>
</g>
<g>
</g>
<g>
</g>
<g>
</g>
<g>
</g>
<g>
</g>
<g>
</g>
<g>
</g>
<g>
</g>
<g>
</g>
<g>
</g>
</svg>
