<svg xmlns="http://www.w3.org/2000/svg" viewBox="0 0 480 480"><path d="M382.528 168c-4.335-12.442-17.935-19.014-30.376-14.68a23.857 23.857 0 0 0-14.68 14.68H320a8 8 0 0 1-8-8v-17.472c12.442-4.335 19.014-17.935 14.68-30.376A23.857 23.857 0 0 0 312 97.472V0H168v97.448a22.764 22.764 0 0 0-8.856 5.544A23.478 23.478 0 0 0 152 120a24 24 0 0 0 16 22.528V160a8 8 0 0 1-8 8h-17.472A24 24 0 0 0 120 152a24 24 0 0 0-22.544 16H0v144h97.472c4.335 12.442 17.935 19.014 30.376 14.68a23.857 23.857 0 0 0 14.68-14.68h84.84L260 279.336 254.552 312h82.92A24 24 0 0 0 360 328a24 24 0 0 0 22.544-16H480V168h-97.472zM96 296H16V184h80v112zm32 8a8 8 0 0 1-16 0V176a7.798 7.798 0 0 1 2.456-5.696A7.613 7.613 0 0 1 120 168a8 8 0 0 1 8 8v128zm56-288h112v80H184V16zm-13.544 98.304A7.613 7.613 0 0 1 176 112h128a8 8 0 0 1 0 16H176a8 8 0 0 1-8-8 7.798 7.798 0 0 1 2.456-5.696zM336 296h-62.552L284 232.664 220.744 296H144V184h16c13.255 0 24-10.745 24-24v-16h112v16c0 13.255 10.745 24 24 24h16v112zm32 8a7.823 7.823 0 0 1-2.448 5.696A7.656 7.656 0 0 1 360 312a8 8 0 0 1-8-8V176a8 8 0 0 1 16 0v128zm96-8h-80V184h80v112zm-224 41.92l-6.584 9.536C229.176 353.6 192 408.104 192 432c0 26.51 21.49 48 48 48s48-21.49 48-48c0-23.896-37.176-78.4-41.416-84.544L240 337.92zM240 464c-17.673 0-32-14.327-32-32 0-12.296 17.6-43.416 32-65.6 14.4 22.192 32 53.312 32 65.6 0 17.673-14.327 32-32 32z"/></svg>