<svg xmlns="http://www.w3.org/2000/svg" viewBox="0 0 483.312 483.312"><path d="M392.86 158.176a7.986 7.986 0 0 0-7.2-4.52H270.3L336.884 13.08a7.983 7.983 0 0 0-.472-7.704 7.981 7.981 0 0 0-6.752-3.72h-160a7.994 7.994 0 0 0-7.864 6.544l-40 216a7.965 7.965 0 0 0 1.72 6.568 7.965 7.965 0 0 0 6.144 2.888h92.328l-91.792 237.112a7.995 7.995 0 0 0 3.488 9.824 7.9 7.9 0 0 0 3.968 1.064 8.007 8.007 0 0 0 6.272-3.024l248-312a8.012 8.012 0 0 0 .936-8.456zM164.084 427.552l77.04-199.008a8.024 8.024 0 0 0-.856-7.416 8.037 8.037 0 0 0-6.608-3.472h-94.384l37.04-200H317.02l-66.584 140.576a7.983 7.983 0 0 0 .472 7.704 7.981 7.981 0 0 0 6.752 3.72h111.424l-205 257.896zM1.66 233.656h80v16h-80zm400 0h80v16h-80zm14.339-173.65L471.995 4.01l11.313 11.314-55.996 55.996zM.03 459.993l55.995-55.996 11.314 11.314-55.996 55.996zm415.959-36.678l11.313-11.314 55.996 55.996-11.313 11.314zM0 15.308L11.313 3.995 67.31 59.99 55.996 71.304z"/></svg>