<svg xmlns="http://www.w3.org/2000/svg" viewBox="0 0 463 463"><path d="M380.058 170.01c-14.224-30.789-34.026-61.115-58.86-90.137-42.183-49.297-83.771-77.43-85.521-78.603a7.503 7.503 0 0 0-8.355 0c-1.749 1.173-43.338 29.306-85.521 78.603-24.834 29.021-44.637 59.348-58.86 90.137C65.064 208.709 56 248.238 56 287.5 56 384.271 134.728 463 231.5 463S407 384.271 407 287.5c0-39.262-9.065-78.791-26.942-117.49zM231.5 448C143 448 71 376 71 287.5c0-37.002 8.566-74.343 25.46-110.985 13.602-29.501 32.603-58.631 56.474-86.579 33.306-38.993 67.018-64.867 78.568-73.252 11.512 8.349 45.021 34.052 78.3 72.942 23.938 27.976 42.994 57.137 56.64 86.676C383.4 213.013 392 250.426 392 287.5 392 376 320 448 231.5 448z"/><path d="M365.462 312.214a7.499 7.499 0 0 0-9.054 5.524c-8.594 35.495-32.084 65.794-64.448 83.128a7.5 7.5 0 1 0 7.082 13.222c36.125-19.348 62.348-53.18 71.944-92.821a7.498 7.498 0 0 0-5.524-9.053zm8.925-41.266a7.5 7.5 0 0 0-14.959 1.107c.38 5.127.572 10.323.572 15.444 0 4.143 3.357 7.5 7.5 7.5s7.5-3.357 7.5-7.5c0-5.489-.206-11.058-.613-16.551zM199.5 216a7.499 7.499 0 0 0-7.5 7.5V264h-49v-40.5c0-4.143-3.357-7.5-7.5-7.5s-7.5 3.357-7.5 7.5v96c0 4.143 3.357 7.5 7.5 7.5s7.5-3.357 7.5-7.5V279h49v40.5c0 4.143 3.357 7.5 7.5 7.5s7.5-3.357 7.5-7.5v-96a7.5 7.5 0 0 0-7.5-7.5zM335 287.5v-32c0-21.78-17.72-39.5-39.5-39.5S256 233.72 256 255.5v32c0 21.78 17.72 39.5 39.5 39.5s39.5-17.72 39.5-39.5zm-64 0v-32c0-13.51 10.99-24.5 24.5-24.5s24.5 10.99 24.5 24.5v32c0 13.51-10.99 24.5-24.5 24.5S271 301.01 271 287.5zM235.5 351h4c10.752 0 19.5-8.748 19.5-19.5s-8.748-19.5-19.5-19.5h-8c-8.547 0-15.5 6.953-15.5 15.5 0 4.143 3.357 7.5 7.5 7.5s7.5-3.357 7.5-7.5c0-.275.225-.5.5-.5h8c2.481 0 4.5 2.019 4.5 4.5s-2.019 4.5-4.5 4.5h-4c-10.752 0-19.5 8.748-19.5 19.5v12c0 4.143 3.357 7.5 7.5 7.5h28c4.143 0 7.5-3.357 7.5-7.5s-3.357-7.5-7.5-7.5H231v-4.5c0-2.482 2.018-4.5 4.5-4.5z"/></svg>